HIERARCHY
ROOT Hips
{
	OFFSET 0.000000 71.427986 0.000000
	CHANNELS 6 Xposition Yposition Zposition Xrotation Yrotation Zrotation
	JOINT Pelvis
	{
		OFFSET 0.000000 0.000000 0.000000
		CHANNELS 3 Xrotation Yrotation Zrotation
		JOINT LeftUpLeg
		{
			OFFSET 6.797100 -2.508499 -1.318700
			CHANNELS 3 Xrotation Yrotation Zrotation
			JOINT LeftLeg
			{
				OFFSET 0.069008 -29.241863 0.690200
				CHANNELS 3 Xrotation Yrotation Zrotation
				JOINT LeftFoot
				{
					OFFSET -0.069008 -29.568123 -0.266800
					CHANNELS 3 Xrotation Yrotation Zrotation
					JOINT LeftToeBase
					{
						OFFSET 3.145500 -8.631000 16.059900
						CHANNELS 3 Xrotation Yrotation Zrotation
						End Site
						{
							OFFSET 0.000000 18.501587 0.000000
						}
					}
				}
			}
			JOINT Left_ShortSleeve
			{
				OFFSET 0.265923 -10.480953 1.153800
				CHANNELS 3 Xrotation Yrotation Zrotation
				End Site
				{
					OFFSET 1.725763 19.823879 0.000000
				}
			}
		}
		JOINT RightUpLeg
		{
			OFFSET -6.797100 -2.508499 -1.318700
			CHANNELS 3 Xrotation Yrotation Zrotation
			JOINT RightLeg
			{
				OFFSET -0.082453 -29.241932 0.688000
				CHANNELS 3 Xrotation Yrotation Zrotation
				JOINT RightFoot
				{
					OFFSET 0.082453 -29.568058 -0.264600
					CHANNELS 3 Xrotation Yrotation Zrotation
					JOINT RightToeBase
					{
						OFFSET -3.115300 -8.682800 16.113400
						CHANNELS 3 Xrotation Yrotation Zrotation
						End Site
						{
							OFFSET 0.000000 18.567114 0.000000
						}
					}
				}
			}
			JOINT Right_ShortSleeve
			{
				OFFSET -0.265923 -10.480953 1.153800
				CHANNELS 3 Xrotation Yrotation Zrotation
				End Site
				{
					OFFSET -1.725766 19.823910 0.000000
				}
			}
		}
	}
	JOINT Spine
	{
		OFFSET 0.000000 13.368103 0.470500
		CHANNELS 3 Xrotation Yrotation Zrotation
		JOINT Spine1
		{
			OFFSET 0.147000 13.837402 0.538800
			CHANNELS 3 Xrotation Yrotation Zrotation
			JOINT Spine2
			{
				OFFSET 0.168000 16.242897 -1.435500
				CHANNELS 3 Xrotation Yrotation Zrotation
				JOINT Neck
				{
					OFFSET 0.217200 18.631500 -1.679100
					CHANNELS 3 Xrotation Yrotation Zrotation
					JOINT Head
					{
						OFFSET 0.000000 6.599396 1.385900
						CHANNELS 3 Xrotation Yrotation Zrotation
						JOINT Hat
						{
							OFFSET -0.532200 27.220596 -10.096100
							CHANNELS 3 Xrotation Yrotation Zrotation
							End Site
							{
								OFFSET 0.000000 22.029861 0.000000
							}
						}
						JOINT HairD
						{
							OFFSET -10.777400 17.437393 -1.325900
							CHANNELS 3 Xrotation Yrotation Zrotation
							JOINT HairD1
							{
								OFFSET -3.290299 -11.051193 1.062200
								CHANNELS 3 Xrotation Yrotation Zrotation
								End Site
								{
									OFFSET 0.000000 11.579437 0.000000
								}
							}
						}
						JOINT HairB
						{
							OFFSET -10.777400 17.437393 1.467900
							CHANNELS 3 Xrotation Yrotation Zrotation
							JOINT HairB1
							{
								OFFSET -1.561200 -12.956299 3.590200
								CHANNELS 3 Xrotation Yrotation Zrotation
								End Site
								{
									OFFSET 0.000000 13.534866 0.000000
								}
							}
						}
						JOINT HairA
						{
							OFFSET 9.713100 17.437393 1.467900
							CHANNELS 3 Xrotation Yrotation Zrotation
							JOINT HairA1
							{
								OFFSET 1.561200 -12.956299 3.590200
								CHANNELS 3 Xrotation Yrotation Zrotation
								End Site
								{
									OFFSET 0.000000 13.534866 0.000000
								}
							}
						}
						JOINT HairC
						{
							OFFSET 9.713100 17.437393 -1.325900
							CHANNELS 3 Xrotation Yrotation Zrotation
							JOINT HairC1
							{
								OFFSET 3.290300 -11.051193 1.062200
								CHANNELS 3 Xrotation Yrotation Zrotation
								End Site
								{
									OFFSET 0.000000 11.579437 0.000000
								}
							}
						}
					}
				}
				JOINT LeftShoulder
				{
					OFFSET 5.101800 15.108002 -2.763700
					CHANNELS 3 Xrotation Yrotation Zrotation
					JOINT LeftArm
					{
						OFFSET 9.825497 2.506317 -1.597400
						CHANNELS 3 Xrotation Yrotation Zrotation
						JOINT LeftForeArm
						{
							OFFSET 21.966244 0.000000 0.000000
							CHANNELS 3 Xrotation Yrotation Zrotation
							JOINT LeftHand
							{
								OFFSET 33.879036 0.000000 0.000000
								CHANNELS 3 Xrotation Yrotation Zrotation
								JOINT LeftHandThumb1
								{
									OFFSET 6.715286 -2.359680 3.363841
									CHANNELS 3 Xrotation Yrotation Zrotation
									JOINT LeftHandThumb2
									{
										OFFSET 2.507072 -1.447464 1.447461
										CHANNELS 3 Xrotation Yrotation Zrotation
										JOINT LeftHandThumb3
										{
											OFFSET 2.898338 -1.673355 1.673357
											CHANNELS 3 Xrotation Yrotation Zrotation
											End Site
											{
												OFFSET -0.295959 3.727692 -0.131651
											}
										}
									}
								}
								JOINT LeftHandIndex1
								{
									OFFSET 14.190811 -0.254547 3.840278
									CHANNELS 3 Xrotation Yrotation Zrotation
									JOINT LeftHandIndex2
									{
										OFFSET 3.551727 0.000000 -0.000000
										CHANNELS 3 Xrotation Yrotation Zrotation
										JOINT LeftHandIndex3
										{
											OFFSET 2.894196 0.000000 0.000000
											CHANNELS 3 Xrotation Yrotation Zrotation
											End Site
											{
												OFFSET -1.000603 2.690872 0.366626
											}
										}
									}
								}
								JOINT LeftHandMiddle1
								{
									OFFSET 13.776489 0.000000 0.000000
									CHANNELS 3 Xrotation Yrotation Zrotation
									JOINT LeftHandMiddle2
									{
										OFFSET 3.438232 0.000000 0.000000
										CHANNELS 3 Xrotation Yrotation Zrotation
										JOINT LeftHandMiddle3
										{
											OFFSET 3.691551 0.000000 0.000000
											CHANNELS 3 Xrotation Yrotation Zrotation
											End Site
											{
												OFFSET -1.082298 3.499527 0.457670
											}
										}
									}
								}
								JOINT LeftHandRing1
								{
									OFFSET 13.966164 -0.268127 -3.067488
									CHANNELS 3 Xrotation Yrotation Zrotation
									JOINT LeftHandRing2
									{
										OFFSET 3.162567 0.000000 0.000000
										CHANNELS 3 Xrotation Yrotation Zrotation
										JOINT LeftHandRing3
										{
											OFFSET 3.324348 0.000000 0.000000
											CHANNELS 3 Xrotation Yrotation Zrotation
											End Site
											{
												OFFSET -0.861900 3.184998 0.405154
											}
										}
									}
								}
								JOINT LeftHandPinky1
								{
									OFFSET 13.131393 -0.168503 -5.746925
									CHANNELS 3 Xrotation Yrotation Zrotation
									JOINT LeftHandPinky2
									{
										OFFSET 2.849182 0.000000 0.000000
										CHANNELS 3 Xrotation Yrotation Zrotation
										JOINT LeftHandPinky3
										{
											OFFSET 2.805038 0.000000 0.000000
											CHANNELS 3 Xrotation Yrotation Zrotation
											End Site
											{
												OFFSET -0.882500 2.642609 0.325652
											}
										}
									}
								}
							}
							JOINT Left_Sleeve
							{
								OFFSET 6.592125 -0.646545 0.805568
								CHANNELS 3 Xrotation Yrotation Zrotation
								End Site
								{
									OFFSET -0.000179 20.275787 -0.000000
								}
							}
						}
					}
				}
				JOINT RightShoulder
				{
					OFFSET -5.731700 15.108002 -2.763700
					CHANNELS 3 Xrotation Yrotation Zrotation
					JOINT RightArm
					{
						OFFSET -9.825497 2.506317 -1.597400
						CHANNELS 3 Xrotation Yrotation Zrotation
						JOINT RightForeArm
						{
							OFFSET -21.966242 0.000000 0.000000
							CHANNELS 3 Xrotation Yrotation Zrotation
							JOINT RightHand
							{
								OFFSET -33.879032 0.000000 0.000000
								CHANNELS 3 Xrotation Yrotation Zrotation
								JOINT RightHandThumb1
								{
									OFFSET -6.715286 -2.359680 3.363841
									CHANNELS 3 Xrotation Yrotation Zrotation
									JOINT RightHandThumb2
									{
										OFFSET -2.507072 -1.447464 1.447461
										CHANNELS 3 Xrotation Yrotation Zrotation
										JOINT RightHandThumb3
										{
											OFFSET -2.898338 -1.673355 1.673357
											CHANNELS 3 Xrotation Yrotation Zrotation
											End Site
											{
												OFFSET 0.295959 3.727692 -0.131651
											}
										}
									}
								}
								JOINT RightHandIndex1
								{
									OFFSET -14.190811 -0.254547 3.840278
									CHANNELS 3 Xrotation Yrotation Zrotation
									JOINT RightHandIndex2
									{
										OFFSET -3.551727 0.000000 -0.000000
										CHANNELS 3 Xrotation Yrotation Zrotation
										JOINT RightHandIndex3
										{
											OFFSET -2.894196 0.000000 0.000000
											CHANNELS 3 Xrotation Yrotation Zrotation
											End Site
											{
												OFFSET 1.000603 2.690872 0.366626
											}
										}
									}
								}
								JOINT RightHandMiddle1
								{
									OFFSET -13.776489 0.000000 0.000000
									CHANNELS 3 Xrotation Yrotation Zrotation
									JOINT RightHandMiddle2
									{
										OFFSET -3.438232 0.000000 0.000000
										CHANNELS 3 Xrotation Yrotation Zrotation
										JOINT RightHandMiddle3
										{
											OFFSET -3.691551 0.000000 0.000000
											CHANNELS 3 Xrotation Yrotation Zrotation
											End Site
											{
												OFFSET 1.082298 3.499527 0.457670
											}
										}
									}
								}
								JOINT RightHandRing1
								{
									OFFSET -13.966164 -0.268127 -3.067488
									CHANNELS 3 Xrotation Yrotation Zrotation
									JOINT RightHandRing2
									{
										OFFSET -3.162567 0.000000 0.000000
										CHANNELS 3 Xrotation Yrotation Zrotation
										JOINT RightHandRing3
										{
											OFFSET -3.324348 0.000000 0.000000
											CHANNELS 3 Xrotation Yrotation Zrotation
											End Site
											{
												OFFSET 0.861900 3.184998 0.405154
											}
										}
									}
								}
								JOINT RightHandPinky1
								{
									OFFSET -13.131393 -0.168503 -5.746925
									CHANNELS 3 Xrotation Yrotation Zrotation
									JOINT RightHandPinky2
									{
										OFFSET -2.849182 0.000000 0.000000
										CHANNELS 3 Xrotation Yrotation Zrotation
										JOINT RightHandPinky3
										{
											OFFSET -2.805038 0.000000 0.000000
											CHANNELS 3 Xrotation Yrotation Zrotation
											End Site
											{
												OFFSET 0.882500 2.642609 0.325652
											}
										}
									}
								}
							}
							JOINT Right_Sleeve
							{
								OFFSET -6.592125 -0.646545 0.805568
								CHANNELS 3 Xrotation Yrotation Zrotation
								End Site
								{
									OFFSET 0.000179 20.275787 -0.000000
								}
							}
						}
					}
				}
				JOINT Bind_Right_JacketString
				{
					OFFSET -3.534800 11.969597 7.200700
					CHANNELS 3 Xrotation Yrotation Zrotation
					JOINT Bind_Right_JacketString1
					{
						OFFSET -0.319900 -6.102600 2.794100
						CHANNELS 3 Xrotation Yrotation Zrotation
						End Site
						{
							OFFSET 0.000000 6.719452 0.000000
						}
					}
				}
				JOINT Bind_Left_JacketString
				{
					OFFSET 2.904800 11.969597 7.200700
					CHANNELS 3 Xrotation Yrotation Zrotation
					JOINT Bind_Left_JacketString1
					{
						OFFSET 0.364800 -5.904503 3.186800
						CHANNELS 3 Xrotation Yrotation Zrotation
						End Site
						{
							OFFSET 0.000000 6.719513 0.000000
						}
					}
				}
				JOINT HairE
				{
					OFFSET 5.915200 17.612701 -11.592200
					CHANNELS 3 Xrotation Yrotation Zrotation
					JOINT HairE1
					{
						OFFSET 0.289200 -7.171898 -1.284500
						CHANNELS 3 Xrotation Yrotation Zrotation
						End Site
						{
							OFFSET 0.000000 7.291756 0.000000
						}
					}
				}
				JOINT HairF
				{
					OFFSET -0.864800 17.612701 -11.592200
					CHANNELS 3 Xrotation Yrotation Zrotation
					JOINT HairF1
					{
						OFFSET 0.000000 -14.087097 -2.127501
						CHANNELS 3 Xrotation Yrotation Zrotation
						End Site
						{
							OFFSET 0.000000 14.246841 0.000000
						}
					}
				}
				JOINT HairG
				{
					OFFSET -8.087700 17.612701 -11.592200
					CHANNELS 3 Xrotation Yrotation Zrotation
					JOINT HairG1
					{
						OFFSET -0.293600 -6.081398 -0.910100
						CHANNELS 3 Xrotation Yrotation Zrotation
						End Site
						{
							OFFSET 0.000000 6.156120 0.000000
						}
					}
				}
			}
		}
	}
	JOINT Pouch
	{
		OFFSET 0.000000 4.394501 10.847300
		CHANNELS 3 Xrotation Yrotation Zrotation
		End Site
		{
			OFFSET 0.000000 21.880577 0.000000
		}
	}
	JOINT Bag
	{
		OFFSET -13.229000 4.813004 -0.593300
		CHANNELS 3 Xrotation Yrotation Zrotation
		End Site
		{
			OFFSET 0.000000 21.880577 0.000000
		}
	}
	JOINT OccupyGuyFacialAnim_Joint
	{
		OFFSET 1.000000 -70.206398 -1.655000
		CHANNELS 3 Xrotation Yrotation Zrotation
		End Site
		{
			OFFSET 0.000000 21.880577 0.000000
		}
	}
}
MOTION
Frames: 4
Frame Time: 0.033333
-1.677649 64.863747 0.612941 36.753873 -64.641805 36.822376 0.000001 0.000000 -0.000000 -49.291061 2.016688 -2.391298 45.902327 -10.094226 1.477392 -13.182384 -0.278283 0.559439 -0.000000 -0.000001 0.000000 0.000002 -0.000002 -0.000000 -43.253611 -5.241399 -17.564666 46.165901 -5.283976 -2.311481 -16.236415 -2.595518 14.098308 -0.000000 0.000000 -0.000000 0.000001 -0.000002 -0.000000 7.812860 3.253355 4.284018 12.708086 6.406033 6.653768 12.728029 6.437183 6.589104 3.383353 -0.459803 2.265644 8.870467 1.649190 -4.480669 -0.000000 -0.000001 -0.000000 -0.000000 -0.000001 -0.000000 -0.000000 -0.000001 0.000000 -0.000000 -0.000001 -0.000000 -0.000003 -0.000001 -0.000002 -0.000000 -0.000001 -0.000000 -0.000003 -0.000001 -0.000002 -0.000000 -0.000001 -0.000000 -0.000000 -0.000001 -0.000000 0.618334 -2.107657 -11.581040 -46.447370 -28.850897 -92.587148 0.000001 -20.859092 -0.000003 -20.174478 18.972341 30.596420 55.682643 -2.117916 45.305236 81.950331 -1.423325 50.782470 0.000001 0.000001 -0.000001 -3.643681 -5.208163 -23.541280 5.723151 5.849657 -88.745304 0.000002 0.000004 -0.000001 -1.096275 4.922755 -58.440437 6.991399 5.739227 -101.257466 0.000000 -0.000003 0.000000 7.431478 8.811843 -74.918767 5.954402 5.850156 -91.013582 -0.000002 -0.000001 -0.000000 20.711389 9.388349 -85.840711 5.062047 5.797821 -82.236625 -0.000001 -0.000001 0.000004 0.000000 0.000000 -0.000001 -0.784475 15.466909 22.252683 -56.158679 25.007466 77.069170 0.000004 0.023356 0.000000 -12.877931 -7.610904 2.871587 -5.865197 4.447717 -27.474112 0.700722 -40.087859 14.641042 -0.000002 0.000002 -0.000001 -2.857605 -16.672220 -11.849141 4.400792 -4.650107 86.840999 -0.000000 0.000000 0.000000 6.189308 -11.029380 41.067117 5.549917 -4.570975 101.063406 0.000001 0.000001 -0.000001 -0.865235 -4.640742 62.576315 4.860716 -4.652739 92.507549 0.000002 -0.000001 -0.000000 -13.669905 -1.459558 72.993316 3.233218 -4.434615 72.178154 -0.000000 0.000001 -0.000001 0.000004 0.000000 0.000001 0.000001 -0.000001 -0.000000 -0.000001 0.000001 -0.000000 0.000001 -0.000001 -0.000000 0.000001 -0.000001 -0.000000 0.000001 -0.000001 -0.000000 -0.000001 0.000001 -0.000000 0.000001 -0.000001 -0.000000 0.000001 -0.000001 -0.000000 0.000001 -0.000001 -0.000000 -0.000001 0.000001 -0.000000 0.000001 0.000000 -0.000000 0.000001 0.000000 -0.000000 0.000001 0.000000 -0.000000 
-1.657318 64.861191 0.589436 36.617594 -64.626854 36.682351 -0.000001 -0.000000 -0.000000 -49.292690 2.005415 -2.381522 45.905257 -10.094669 1.477454 -13.177829 -0.307609 0.543576 -0.000000 0.000000 0.000000 -0.000003 -0.000001 -0.000001 -43.237474 -5.255424 -17.571917 46.194796 -5.301963 -2.285832 -16.237911 -2.594557 14.078200 -0.000000 0.000000 -0.000000 -0.000000 0.000000 -0.000000 7.812856 3.253424 4.283853 12.724353 6.387463 6.656806 12.744367 6.419394 6.591935 3.346042 -0.435439 2.263846 8.849671 1.826778 -4.644337 -0.000001 0.000000 -0.000000 -0.000001 0.000000 -0.000000 -0.000001 0.000000 0.000000 -0.000001 0.000000 -0.000000 -0.000001 0.000000 -0.000001 -0.000001 0.000000 -0.000000 -0.000001 0.000000 -0.000001 -0.000001 0.000000 -0.000000 -0.000001 0.000000 -0.000000 0.618815 -2.102381 -11.598480 -46.495335 -28.824911 -92.662410 -0.000011 -20.742484 -0.000020 -20.174680 18.891526 30.529610 55.869575 -2.303153 45.218332 82.047415 -1.290665 50.508433 -0.000001 0.000001 -0.000001 -3.670460 -5.091684 -23.914007 5.728295 5.849763 -88.795704 0.000001 0.000002 -0.000003 -1.055904 4.971576 -58.694951 6.991393 5.739233 -101.257500 -0.000000 0.000001 0.000004 7.432100 8.803241 -75.074823 5.954392 5.850174 -91.013596 0.000002 -0.000001 -0.000000 20.683073 9.344725 -85.992710 5.073700 5.799373 -82.351980 -0.000000 0.000001 -0.000001 0.000000 -0.000001 0.000001 -0.779090 15.441816 22.229027 -55.894795 24.963558 76.952702 -0.000003 0.456876 -0.000002 -12.794233 -7.812028 2.824039 -5.865182 4.447731 -27.474125 0.724050 -40.114708 14.665808 -0.000000 -0.000001 -0.000001 -2.878837 -16.719031 -11.896338 4.393055 -4.649683 86.745506 0.000001 0.000000 -0.000001 6.195526 -11.044714 41.025787 5.551532 -4.570671 101.083965 -0.000001 -0.000000 -0.000001 -0.866663 -4.637365 62.541754 4.854629 -4.653012 92.432615 -0.000000 -0.000000 -0.000000 -13.642331 -1.429458 72.877333 3.233226 -4.434610 72.178154 -0.000002 0.000001 0.000001 -0.000003 -0.000000 -0.000001 -0.000000 0.000000 0.000001 0.000001 0.000003 -0.000001 -0.000000 0.000000 0.000001 -0.000000 0.000000 0.000001 -0.000000 0.000000 0.000001 0.000001 0.000003 -0.000001 -0.000000 0.000000 0.000001 -0.000000 0.000000 0.000001 -0.000000 0.000000 0.000001 0.000001 0.000003 -0.000001 -0.000001 -0.000000 -0.000000 -0.000001 -0.000000 -0.000000 -0.000001 -0.000000 -0.000000 
-1.636576 64.856392 0.561152 36.456603 -64.602743 36.510817 -0.000000 0.000000 -0.000000 -49.291973 1.989960 -2.368204 45.913413 -10.091372 1.478127 -13.171779 -0.365855 0.536904 -0.000000 -0.000001 -0.000000 0.000000 0.000000 -0.000000 -43.223322 -5.275155 -17.571343 46.239015 -5.343052 -2.257662 -16.247263 -2.584322 14.057568 -0.000000 0.000000 0.000000 0.000001 -0.000001 -0.000001 7.812895 3.253324 4.283108 12.736816 6.369136 6.657944 12.757251 6.402106 6.592763 3.322566 -0.402797 2.282377 8.792456 2.044999 -4.804589 0.000002 0.000000 0.000001 0.000002 0.000000 0.000001 0.000002 0.000000 0.000001 0.000002 0.000000 0.000001 -0.000000 0.000001 -0.000001 0.000002 0.000000 0.000001 -0.000000 0.000001 -0.000001 0.000002 0.000000 0.000001 0.000002 0.000000 0.000001 0.614352 -2.117979 -11.635092 -46.447817 -28.815926 -92.661051 -0.000005 -20.749073 -0.000006 -20.230904 18.890428 30.551306 56.056387 -2.489444 45.131858 82.145080 -1.158347 50.234149 -0.000000 0.000001 -0.000001 -3.697397 -4.968528 -24.307260 5.733678 5.849869 -88.848310 0.000001 0.000002 -0.000002 -1.012952 5.022754 -58.963678 6.991387 5.739224 -101.257479 0.000002 -0.000003 0.000000 7.432690 8.794225 -75.239165 5.954398 5.850145 -91.013575 -0.000002 -0.000001 -0.000000 20.652674 9.298989 -86.152707 5.085948 5.800997 -82.473216 -0.000002 0.000001 -0.000001 0.000000 0.000001 0.000000 -0.770456 15.424466 22.167017 -55.632987 24.887288 76.855577 -0.000006 0.890954 0.000017 -12.829215 -7.961349 2.865631 -5.865174 4.447723 -27.474134 0.723823 -40.114616 14.665384 -0.000002 0.000002 -0.000000 -2.895010 -16.736981 -11.943802 4.394117 -4.649730 86.758818 -0.000001 0.000000 -0.000001 6.203761 -11.059365 40.999570 5.552239 -4.570538 101.092503 -0.000001 0.000000 -0.000001 -0.868213 -4.633680 62.503662 4.855466 -4.652975 92.442772 -0.000001 -0.000001 -0.000001 -13.571220 -1.389085 72.687624 3.233212 -4.434615 72.178147 -0.000001 0.000001 0.000001 -0.000001 0.000000 0.000000 -0.000000 -0.000002 -0.000000 -0.000002 -0.000003 -0.000000 -0.000000 -0.000002 -0.000000 -0.000000 -0.000002 -0.000000 -0.000000 -0.000002 -0.000000 -0.000002 -0.000003 -0.000000 -0.000000 -0.000002 -0.000000 -0.000000 -0.000002 -0.000000 -0.000000 -0.000002 -0.000000 -0.000002 -0.000003 -0.000000 -0.000000 0.000000 -0.000000 -0.000000 0.000000 -0.000000 -0.000000 0.000000 -0.000000 
-1.622629 64.850914 0.525193 36.357660 -64.596371 36.384961 -0.000001 -0.000000 -0.000000 -49.295244 1.994901 -2.295930 45.936372 -10.108243 1.446914 -13.171841 -0.432306 0.547005 -0.000000 -0.000001 -0.000000 0.000000 0.000000 -0.000000 -43.207083 -5.256320 -17.509402 46.279989 -5.424434 -2.248680 -16.255582 -2.578946 14.051711 -0.000000 -0.000000 0.000000 -0.000005 -0.000000 0.000001 7.813534 3.250987 4.273742 12.742444 6.361656 6.641690 12.762510 6.394509 6.576578 3.296446 -0.372455 2.328077 8.721893 2.292152 -4.984257 0.000001 0.000000 -0.000002 0.000001 0.000000 -0.000002 0.000001 0.000000 -0.000001 0.000001 0.000000 -0.000000 -0.000000 0.000002 0.000001 0.000001 0.000000 -0.000000 -0.000000 0.000002 0.000001 0.000001 0.000000 -0.000002 0.000001 0.000000 -0.000002 0.618658 -2.099621 -11.619996 -46.476610 -28.849992 -92.707209 -0.000006 -20.694063 -0.000006 -20.345598 18.843092 30.611515 56.243080 -2.676851 45.045805 82.243448 -1.026343 49.959634 -0.000000 0.000007 -0.000000 -3.723095 -4.844749 -24.701856 5.738969 5.849961 -88.900533 0.000004 -0.000000 -0.000002 -0.969523 5.073774 -59.233381 6.991388 5.739235 -101.257479 0.000002 -0.000001 0.000006 7.433141 8.785200 -75.403758 5.954404 5.850153 -91.013589 -0.000000 0.000002 0.000003 20.621608 9.253399 -86.312855 5.098205 5.802604 -82.594438 -0.000000 0.000002 -0.000000 0.000000 -0.000001 0.000000 -0.759531 15.424153 22.114264 -55.632106 24.896473 76.876142 0.000002 0.788537 0.000005 -12.986963 -7.796112 3.040016 -5.865185 4.447700 -27.474112 0.737836 -40.130274 14.680703 -0.000001 -0.000002 0.000001 -2.893262 -16.753373 -11.926568 4.394309 -4.649746 86.761065 0.000001 0.000002 0.000001 6.224429 -11.079572 41.016580 5.551176 -4.570737 101.079368 -0.000002 -0.000000 -0.000001 -0.867784 -4.634706 62.514249 4.855656 -4.652987 92.445422 0.000001 -0.000001 -0.000002 -13.545542 -1.376042 72.623339 3.229277 -4.433330 72.126982 -0.000001 0.000001 0.000001 0.000001 -0.000001 -0.000002 -0.000003 0.000001 0.000001 0.000000 -0.000002 0.000000 -0.000003 0.000001 0.000001 -0.000003 0.000001 0.000001 -0.000003 0.000001 0.000001 0.000000 -0.000002 0.000001 -0.000003 0.000001 0.000001 -0.000003 0.000001 0.000001 -0.000003 0.000001 0.000001 0.000000 -0.000002 0.000001 -0.000001 -0.000000 -0.000000 -0.000001 -0.000000 -0.000000 -0.000001 -0.000000 -0.000000 
